# MagicaVoxel @ Ephtracy

# group
o 

# material
mtllib untitled.mtl
usemtl palette

# normals
vn -1 0 0
vn 1 0 0
vn 0 0 1
vn 0 0 -1
vn 0 -1 0
vn 0 1 0

# texcoords
vt 0.306641 0.5
vt 0.537109 0.5
vt 0.716797 0.5
vt 0.748047 0.5

# verts
v -0.5 0 0.5
v -0.5 0 -0.5
v -0.5 0.6 0.5
v -0.5 0.6 0.3
v -0.5 0.6 0
v -0.5 0.6 -0.1
v -0.5 0.6 -0.3
v -0.5 0.6 -0.5
v -0.5 0.7 0.3
v -0.5 0.7 0.2
v -0.5 0.7 -0.1
v -0.5 0.7 -0.3
v -0.5 0.8 0.2
v -0.5 0.8 0
v -0.5 1 0.5
v -0.5 1 -0.5
v 0.5 0 0.5
v 0.5 0 -0.5
v 0.5 0.6 0.5
v 0.5 0.6 0.3
v 0.5 0.6 -0.3
v 0.5 0.6 -0.4
v 0.5 0.7 0.3
v 0.5 0.7 0.2
v 0.5 0.7 -0.2
v 0.5 0.7 -0.3
v 0.5 0.7 -0.4
v 0.5 0.7 -0.5
v 0.5 0.8 0.2
v 0.5 0.8 -0.2
v 0.5 1 0.5
v 0.5 1 -0.5
v -0.5 0 0.5
v -0.5 0.6 0.5
v -0.5 1 0.5
v -0.4 0.6 0.5
v -0.4 0.7 0.5
v -0.2 0.6 0.5
v -0.2 0.7 0.5
v 0 0.6 0.5
v 0 0.7 0.5
v 0.1 0.7 0.5
v 0.1 0.8 0.5
v 0.2 0.7 0.5
v 0.2 0.8 0.5
v 0.3 0.7 0.5
v 0.3 0.8 0.5
v 0.4 0.6 0.5
v 0.4 0.8 0.5
v 0.5 0 0.5
v 0.5 0.6 0.5
v 0.5 1 0.5
v -0.5 0 -0.5
v -0.5 0.6 -0.5
v -0.5 1 -0.5
v -0.1 0.6 -0.5
v -0.1 0.7 -0.5
v 0 0.7 -0.5
v 0 0.8 -0.5
v 0.4 0.7 -0.5
v 0.4 0.8 -0.5
v 0.5 0 -0.5
v 0.5 0.7 -0.5
v 0.5 1 -0.5
v -0.5 0 0.5
v 0.5 0 0.5
v -0.5 0 -0.5
v 0.5 0 -0.5
v -0.5 1 0.5
v 0.5 1 0.5
v -0.4 1 0.4
v -0.3 1 0.4
v -0.1 1 0.4
v 0 1 0.4
v -0.2 1 0.3
v -0.1 1 0.3
v 0.2 1 0.3
v 0.3 1 0.3
v -0.1 1 0.1
v 0 1 0.1
v 0.1 1 0.1
v 0.3 1 0.1
v 0.4 1 0.1
v -0.4 1 0
v -0.3 1 0
v 0.2 1 0
v 0.3 1 0
v -0.3 1 -0.1
v -0.2 1 -0.1
v -0.1 1 -0.1
v -0.3 1 -0.3
v -0.2 1 -0.3
v 0 1 -0.3
v 0.1 1 -0.3
v 0.3 1 -0.3
v 0.4 1 -0.3
v -0.5 1 -0.5
v 0.5 1 -0.5

# faces
f 3/2/1 2/2/1 1/2/1
f 4/2/1 2/2/1 3/2/1
f 5/2/1 2/2/1 4/2/1
f 6/2/1 2/2/1 5/2/1
f 7/2/1 2/2/1 6/2/1
f 8/2/1 2/2/1 7/2/1
f 9/4/1 4/4/1 3/4/1
f 9/2/1 5/2/1 4/2/1
f 10/2/1 5/2/1 9/2/1
f 11/4/1 6/4/1 5/4/1
f 11/2/1 7/2/1 6/2/1
f 12/4/1 8/4/1 7/4/1
f 12/2/1 7/2/1 11/2/1
f 13/2/1 5/2/1 10/2/1
f 13/4/1 10/4/1 9/4/1
f 14/4/1 11/4/1 5/4/1
f 14/2/1 5/2/1 13/2/1
f 14/4/1 12/4/1 11/4/1
f 15/4/1 13/4/1 9/4/1
f 15/4/1 9/4/1 3/4/1
f 15/4/1 14/4/1 13/4/1
f 16/4/1 12/4/1 14/4/1
f 16/4/1 14/4/1 15/4/1
f 16/4/1 8/4/1 12/4/1
f 17/2/2 18/2/2 19/2/2
f 19/2/2 18/2/2 20/2/2
f 20/2/2 18/2/2 21/2/2
f 21/2/2 18/2/2 22/2/2
f 19/4/2 20/4/2 23/4/2
f 20/2/2 21/2/2 23/2/2
f 23/2/2 21/2/2 24/2/2
f 24/2/2 21/2/2 25/2/2
f 21/4/2 22/4/2 26/4/2
f 25/2/2 21/2/2 26/2/2
f 22/2/2 18/2/2 27/2/2
f 26/4/2 22/4/2 27/4/2
f 27/2/2 18/2/2 28/2/2
f 24/2/2 25/2/2 29/2/2
f 23/4/2 24/4/2 29/4/2
f 25/4/2 26/4/2 30/4/2
f 29/2/2 25/2/2 30/2/2
f 27/4/2 28/4/2 30/4/2
f 26/4/2 27/4/2 30/4/2
f 23/4/2 29/4/2 31/4/2
f 19/4/2 23/4/2 31/4/2
f 29/4/2 30/4/2 31/4/2
f 30/4/2 28/4/2 32/4/2
f 31/4/2 30/4/2 32/4/2
f 36/2/3 34/2/3 33/2/3
f 36/4/3 35/4/3 34/4/3
f 37/4/3 35/4/3 36/4/3
f 38/2/3 36/2/3 33/2/3
f 38/2/3 37/2/3 36/2/3
f 39/4/3 35/4/3 37/4/3
f 39/2/3 37/2/3 38/2/3
f 40/2/3 38/2/3 33/2/3
f 40/4/3 39/4/3 38/4/3
f 41/4/3 35/4/3 39/4/3
f 41/4/3 39/4/3 40/4/3
f 42/2/3 41/2/3 40/2/3
f 42/4/3 35/4/3 41/4/3
f 43/4/3 35/4/3 42/4/3
f 44/2/3 42/2/3 40/2/3
f 44/2/3 43/2/3 42/2/3
f 45/4/3 35/4/3 43/4/3
f 45/2/3 43/2/3 44/2/3
f 46/2/3 44/2/3 40/2/3
f 46/4/3 45/4/3 44/4/3
f 47/4/3 35/4/3 45/4/3
f 47/4/3 45/4/3 46/4/3
f 48/2/3 40/2/3 33/2/3
f 48/2/3 46/2/3 40/2/3
f 48/2/3 47/2/3 46/2/3
f 49/4/3 35/4/3 47/4/3
f 49/2/3 47/2/3 48/2/3
f 50/2/3 48/2/3 33/2/3
f 51/4/3 49/4/3 48/4/3
f 51/2/3 48/2/3 50/2/3
f 52/4/3 35/4/3 49/4/3
f 52/4/3 49/4/3 51/4/3
f 53/2/4 54/2/4 56/2/4
f 54/4/4 55/4/4 56/4/4
f 56/4/4 55/4/4 57/4/4
f 56/2/4 57/2/4 58/2/4
f 57/4/4 55/4/4 58/4/4
f 58/4/4 55/4/4 59/4/4
f 56/2/4 58/2/4 60/2/4
f 58/2/4 59/2/4 60/2/4
f 59/4/4 55/4/4 61/4/4
f 60/2/4 59/2/4 61/2/4
f 53/2/4 56/2/4 62/2/4
f 56/2/4 60/2/4 62/2/4
f 60/4/4 61/4/4 63/4/4
f 62/2/4 60/2/4 63/2/4
f 61/4/4 55/4/4 64/4/4
f 63/4/4 61/4/4 64/4/4
f 67/2/5 66/2/5 65/2/5
f 68/2/5 66/2/5 67/2/5
f 69/4/6 70/4/6 71/4/6
f 71/4/6 70/4/6 72/4/6
f 72/4/6 70/4/6 73/4/6
f 73/4/6 70/4/6 74/4/6
f 72/4/6 73/4/6 75/4/6
f 73/3/6 74/3/6 76/3/6
f 75/4/6 73/4/6 76/4/6
f 74/4/6 70/4/6 77/4/6
f 77/4/6 70/4/6 78/4/6
f 76/3/6 74/3/6 79/3/6
f 75/3/6 76/3/6 79/3/6
f 74/4/6 77/4/6 80/4/6
f 79/3/6 74/3/6 80/3/6
f 80/4/6 77/4/6 81/4/6
f 78/4/6 70/4/6 82/4/6
f 77/3/6 78/3/6 82/3/6
f 82/4/6 70/4/6 83/4/6
f 69/4/6 71/4/6 84/4/6
f 71/3/6 72/3/6 84/3/6
f 72/4/6 75/4/6 85/4/6
f 84/3/6 72/3/6 85/3/6
f 82/3/6 83/3/6 86/3/6
f 81/4/6 77/4/6 86/4/6
f 77/3/6 82/3/6 86/3/6
f 86/3/6 83/3/6 87/3/6
f 85/4/6 75/4/6 88/4/6
f 84/4/6 85/4/6 88/4/6
f 75/3/6 79/3/6 89/3/6
f 88/4/6 75/4/6 89/4/6
f 79/4/6 80/4/6 90/4/6
f 89/3/6 79/3/6 90/3/6
f 84/4/6 88/4/6 91/4/6
f 88/3/6 89/3/6 91/3/6
f 89/4/6 90/4/6 92/4/6
f 91/3/6 89/3/6 92/3/6
f 80/3/6 81/3/6 93/3/6
f 92/4/6 90/4/6 93/4/6
f 90/4/6 80/4/6 93/4/6
f 86/4/6 87/4/6 94/4/6
f 93/3/6 81/3/6 94/3/6
f 81/4/6 86/4/6 94/4/6
f 87/3/6 83/3/6 95/3/6
f 94/4/6 87/4/6 95/4/6
f 83/4/6 70/4/6 96/4/6
f 95/3/6 83/3/6 96/3/6
f 94/4/6 95/4/6 97/4/6
f 93/4/6 94/4/6 97/4/6
f 95/4/6 96/4/6 97/4/6
f 84/4/6 91/4/6 97/4/6
f 91/4/6 92/4/6 97/4/6
f 69/4/6 84/4/6 97/4/6
f 92/4/6 93/4/6 97/4/6
f 96/4/6 70/4/6 98/4/6
f 97/4/6 96/4/6 98/4/6
