# MagicaVoxel @ Ephtracy

# group
o 

# material
mtllib Missile.mtl
usemtl palette

# normals
vn -1 0 0
vn 1 0 0
vn 0 0 1
vn 0 0 -1
vn 0 -1 0
vn 0 1 0

# texcoords
vt 0.841797 0.5
vt 0.974609 0.5

# verts
v -0.5 0.4 0.1
v -0.5 0.4 -0.1
v -0.5 0.6 0.1
v -0.5 0.6 -0.1
v -0.3 0.3 0.1
v -0.3 0.3 -0.1
v -0.3 0.4 0.2
v -0.3 0.4 0.1
v -0.3 0.4 -0.1
v -0.3 0.4 -0.2
v -0.3 0.6 0.2
v -0.3 0.6 0.1
v -0.3 0.6 -0.1
v -0.3 0.6 -0.2
v -0.3 0.7 0.1
v -0.3 0.7 -0.1
v -0.2 0.1 0.1
v -0.2 0.1 -0.1
v -0.2 0.3 0.2
v -0.2 0.3 0.1
v -0.2 0.3 -0.1
v -0.2 0.3 -0.2
v -0.2 0.4 0.4
v -0.2 0.4 0.2
v -0.2 0.4 0.1
v -0.2 0.4 -0.1
v -0.2 0.4 -0.2
v -0.2 0.4 -0.4
v -0.2 0.6 0.4
v -0.2 0.6 0.2
v -0.2 0.6 0.1
v -0.2 0.6 -0.1
v -0.2 0.6 -0.2
v -0.2 0.6 -0.4
v -0.2 0.7 0.2
v -0.2 0.7 0.1
v -0.2 0.7 -0.1
v -0.2 0.7 -0.2
v -0.2 0.9 0.1
v -0.2 0.9 -0.1
v -0.1 0.2 0.1
v -0.1 0.2 -0.1
v -0.1 0.3 0.1
v -0.1 0.3 -0.1
v -0.1 0.4 0.3
v -0.1 0.4 0.2
v -0.1 0.4 -0.2
v -0.1 0.4 -0.3
v -0.1 0.6 0.3
v -0.1 0.6 0.2
v -0.1 0.6 -0.2
v -0.1 0.6 -0.3
v -0.1 0.7 0.1
v -0.1 0.7 -0.1
v -0.1 0.8 0.1
v -0.1 0.8 -0.1
v 0.1 0.3 0.2
v 0.1 0.3 0.1
v 0.1 0.3 -0.1
v 0.1 0.3 -0.2
v 0.1 0.4 0.2
v 0.1 0.4 0.1
v 0.1 0.4 -0.1
v 0.1 0.4 -0.2
v 0.1 0.6 0.2
v 0.1 0.6 0.1
v 0.1 0.6 -0.1
v 0.1 0.6 -0.2
v 0.1 0.7 0.2
v 0.1 0.7 0.1
v 0.1 0.7 -0.1
v 0.1 0.7 -0.2
v 0.2 0.1 0.1
v 0.2 0.1 -0.1
v 0.2 0.2 0.1
v 0.2 0.2 -0.1
v 0.2 0.3 0.1
v 0.2 0.3 -0.1
v 0.2 0.4 0.4
v 0.2 0.4 0.3
v 0.2 0.4 0.2
v 0.2 0.4 0.1
v 0.2 0.4 -0.1
v 0.2 0.4 -0.2
v 0.2 0.4 -0.3
v 0.2 0.4 -0.4
v 0.2 0.6 0.4
v 0.2 0.6 0.3
v 0.2 0.6 0.2
v 0.2 0.6 0.1
v 0.2 0.6 -0.1
v 0.2 0.6 -0.2
v 0.2 0.6 -0.3
v 0.2 0.6 -0.4
v 0.2 0.7 0.1
v 0.2 0.7 -0.1
v 0.2 0.8 0.1
v 0.2 0.8 -0.1
v 0.2 0.9 0.1
v 0.2 0.9 -0.1
v 0.5 0.4 0.1
v 0.5 0.4 -0.1
v 0.5 0.6 0.1
v 0.5 0.6 -0.1
v -0.2 0.4 0.4
v -0.2 0.6 0.4
v 0.1 0.4 0.4
v 0.1 0.6 0.4
v 0.2 0.4 0.4
v 0.2 0.6 0.4
v -0.3 0.4 0.2
v -0.3 0.6 0.2
v -0.2 0.3 0.2
v -0.2 0.4 0.2
v -0.2 0.6 0.2
v -0.2 0.7 0.2
v -0.1 0.4 0.2
v -0.1 0.6 0.2
v 0.1 0.3 0.2
v 0.1 0.4 0.2
v 0.1 0.6 0.2
v 0.1 0.7 0.2
v 0.2 0.4 0.2
v 0.2 0.6 0.2
v -0.5 0.4 0.1
v -0.5 0.6 0.1
v -0.4 0.4 0.1
v -0.4 0.6 0.1
v -0.3 0.3 0.1
v -0.3 0.4 0.1
v -0.3 0.6 0.1
v -0.3 0.7 0.1
v -0.2 0.1 0.1
v -0.2 0.3 0.1
v -0.2 0.4 0.1
v -0.2 0.6 0.1
v -0.2 0.7 0.1
v -0.2 0.9 0.1
v -0.1 0.2 0.1
v -0.1 0.3 0.1
v -0.1 0.7 0.1
v -0.1 0.8 0.1
v 0.1 0.1 0.1
v 0.1 0.2 0.1
v 0.1 0.3 0.1
v 0.1 0.4 0.1
v 0.1 0.6 0.1
v 0.1 0.7 0.1
v 0.1 0.8 0.1
v 0.1 0.9 0.1
v 0.2 0.1 0.1
v 0.2 0.2 0.1
v 0.2 0.3 0.1
v 0.2 0.4 0.1
v 0.2 0.6 0.1
v 0.2 0.7 0.1
v 0.2 0.8 0.1
v 0.2 0.9 0.1
v 0.4 0.4 0.1
v 0.4 0.6 0.1
v 0.5 0.4 0.1
v 0.5 0.6 0.1
v -0.1 0.4 -0.3
v -0.1 0.6 -0.3
v 0.1 0.4 -0.3
v 0.1 0.6 -0.3
v 0.2 0.4 -0.3
v 0.2 0.6 -0.3
v -0.1 0.4 0.3
v -0.1 0.6 0.3
v 0.1 0.4 0.3
v 0.1 0.6 0.3
v 0.2 0.4 0.3
v 0.2 0.6 0.3
v -0.5 0.4 -0.1
v -0.5 0.6 -0.1
v -0.4 0.4 -0.1
v -0.4 0.6 -0.1
v -0.3 0.3 -0.1
v -0.3 0.4 -0.1
v -0.3 0.6 -0.1
v -0.3 0.7 -0.1
v -0.2 0.1 -0.1
v -0.2 0.3 -0.1
v -0.2 0.4 -0.1
v -0.2 0.6 -0.1
v -0.2 0.7 -0.1
v -0.2 0.9 -0.1
v -0.1 0.2 -0.1
v -0.1 0.3 -0.1
v -0.1 0.7 -0.1
v -0.1 0.8 -0.1
v 0.1 0.1 -0.1
v 0.1 0.2 -0.1
v 0.1 0.3 -0.1
v 0.1 0.4 -0.1
v 0.1 0.6 -0.1
v 0.1 0.7 -0.1
v 0.1 0.8 -0.1
v 0.1 0.9 -0.1
v 0.2 0.1 -0.1
v 0.2 0.2 -0.1
v 0.2 0.3 -0.1
v 0.2 0.4 -0.1
v 0.2 0.6 -0.1
v 0.2 0.7 -0.1
v 0.2 0.8 -0.1
v 0.2 0.9 -0.1
v 0.4 0.4 -0.1
v 0.4 0.6 -0.1
v 0.5 0.4 -0.1
v 0.5 0.6 -0.1
v -0.3 0.4 -0.2
v -0.3 0.6 -0.2
v -0.2 0.3 -0.2
v -0.2 0.4 -0.2
v -0.2 0.6 -0.2
v -0.2 0.7 -0.2
v -0.1 0.4 -0.2
v -0.1 0.6 -0.2
v 0.1 0.3 -0.2
v 0.1 0.4 -0.2
v 0.1 0.6 -0.2
v 0.1 0.7 -0.2
v 0.2 0.4 -0.2
v 0.2 0.6 -0.2
v -0.2 0.4 -0.4
v -0.2 0.6 -0.4
v 0.1 0.4 -0.4
v 0.1 0.6 -0.4
v 0.2 0.4 -0.4
v 0.2 0.6 -0.4
v -0.2 0.1 0.1
v 0.1 0.1 0.1
v 0.2 0.1 0.1
v -0.2 0.1 -0.1
v 0.1 0.1 -0.1
v 0.2 0.1 -0.1
v -0.2 0.3 0.2
v 0.1 0.3 0.2
v -0.3 0.3 0.1
v -0.2 0.3 0.1
v -0.1 0.3 0.1
v 0.1 0.3 0.1
v 0.2 0.3 0.1
v -0.3 0.3 -0.1
v -0.2 0.3 -0.1
v -0.1 0.3 -0.1
v 0.1 0.3 -0.1
v 0.2 0.3 -0.1
v -0.2 0.3 -0.2
v 0.1 0.3 -0.2
v -0.2 0.4 0.4
v 0.1 0.4 0.4
v 0.2 0.4 0.4
v -0.1 0.4 0.3
v 0.1 0.4 0.3
v 0.2 0.4 0.3
v -0.3 0.4 0.2
v -0.2 0.4 0.2
v -0.1 0.4 0.2
v 0.1 0.4 0.2
v 0.2 0.4 0.2
v -0.5 0.4 0.1
v -0.4 0.4 0.1
v -0.3 0.4 0.1
v -0.2 0.4 0.1
v 0.1 0.4 0.1
v 0.2 0.4 0.1
v 0.4 0.4 0.1
v 0.5 0.4 0.1
v -0.5 0.4 -0.1
v -0.4 0.4 -0.1
v -0.3 0.4 -0.1
v -0.2 0.4 -0.1
v 0.1 0.4 -0.1
v 0.2 0.4 -0.1
v 0.4 0.4 -0.1
v 0.5 0.4 -0.1
v -0.3 0.4 -0.2
v -0.2 0.4 -0.2
v -0.1 0.4 -0.2
v 0.1 0.4 -0.2
v 0.2 0.4 -0.2
v -0.1 0.4 -0.3
v 0.1 0.4 -0.3
v 0.2 0.4 -0.3
v -0.2 0.4 -0.4
v 0.1 0.4 -0.4
v 0.2 0.4 -0.4
v -0.1 0.8 0.1
v 0.1 0.8 0.1
v 0.2 0.8 0.1
v -0.1 0.8 -0.1
v 0.1 0.8 -0.1
v 0.2 0.8 -0.1
v -0.1 0.2 0.1
v 0.1 0.2 0.1
v 0.2 0.2 0.1
v -0.1 0.2 -0.1
v 0.1 0.2 -0.1
v 0.2 0.2 -0.1
v -0.2 0.6 0.4
v 0.1 0.6 0.4
v 0.2 0.6 0.4
v -0.1 0.6 0.3
v 0.1 0.6 0.3
v 0.2 0.6 0.3
v -0.3 0.6 0.2
v -0.2 0.6 0.2
v -0.1 0.6 0.2
v 0.1 0.6 0.2
v 0.2 0.6 0.2
v -0.5 0.6 0.1
v -0.4 0.6 0.1
v -0.3 0.6 0.1
v -0.2 0.6 0.1
v 0.1 0.6 0.1
v 0.2 0.6 0.1
v 0.4 0.6 0.1
v 0.5 0.6 0.1
v -0.5 0.6 -0.1
v -0.4 0.6 -0.1
v -0.3 0.6 -0.1
v -0.2 0.6 -0.1
v 0.1 0.6 -0.1
v 0.2 0.6 -0.1
v 0.4 0.6 -0.1
v 0.5 0.6 -0.1
v -0.3 0.6 -0.2
v -0.2 0.6 -0.2
v -0.1 0.6 -0.2
v 0.1 0.6 -0.2
v 0.2 0.6 -0.2
v -0.1 0.6 -0.3
v 0.1 0.6 -0.3
v 0.2 0.6 -0.3
v -0.2 0.6 -0.4
v 0.1 0.6 -0.4
v 0.2 0.6 -0.4
v -0.2 0.7 0.2
v 0.1 0.7 0.2
v -0.3 0.7 0.1
v -0.2 0.7 0.1
v -0.1 0.7 0.1
v 0.1 0.7 0.1
v 0.2 0.7 0.1
v -0.3 0.7 -0.1
v -0.2 0.7 -0.1
v -0.1 0.7 -0.1
v 0.1 0.7 -0.1
v 0.2 0.7 -0.1
v -0.2 0.7 -0.2
v 0.1 0.7 -0.2
v -0.2 0.9 0.1
v 0.1 0.9 0.1
v 0.2 0.9 0.1
v -0.2 0.9 -0.1
v 0.1 0.9 -0.1
v 0.2 0.9 -0.1

# faces
f 3/1/1 2/1/1 1/1/1
f 4/1/1 2/1/1 3/1/1
f 8/2/1 6/2/1 5/2/1
f 9/2/1 6/2/1 8/2/1
f 11/2/1 8/2/1 7/2/1
f 12/2/1 8/2/1 11/2/1
f 13/2/1 10/2/1 9/2/1
f 14/2/1 10/2/1 13/2/1
f 15/2/1 13/2/1 12/2/1
f 16/2/1 13/2/1 15/2/1
f 20/2/1 18/2/1 17/2/1
f 21/2/1 18/2/1 20/2/1
f 24/2/1 20/2/1 19/2/1
f 25/2/1 20/2/1 24/2/1
f 26/2/1 22/2/1 21/2/1
f 27/2/1 22/2/1 26/2/1
f 29/2/1 24/2/1 23/2/1
f 30/2/1 24/2/1 29/2/1
f 33/2/1 28/2/1 27/2/1
f 34/2/1 28/2/1 33/2/1
f 35/2/1 31/2/1 30/2/1
f 36/2/1 31/2/1 35/2/1
f 37/2/1 33/2/1 32/2/1
f 38/2/1 33/2/1 37/2/1
f 39/2/1 37/2/1 36/2/1
f 40/2/1 37/2/1 39/2/1
f 41/2/2 42/2/2 43/2/2
f 43/2/2 42/2/2 44/2/2
f 45/2/2 46/2/2 49/2/2
f 49/2/2 46/2/2 50/2/2
f 47/2/2 48/2/2 51/2/2
f 51/2/2 48/2/2 52/2/2
f 53/2/2 54/2/2 55/2/2
f 55/2/2 54/2/2 56/2/2
f 57/2/2 58/2/2 61/2/2
f 61/2/2 58/2/2 62/2/2
f 59/2/2 60/2/2 63/2/2
f 63/2/2 60/2/2 64/2/2
f 65/2/2 66/2/2 69/2/2
f 69/2/2 66/2/2 70/2/2
f 67/2/2 68/2/2 71/2/2
f 71/2/2 68/2/2 72/2/2
f 73/1/2 74/1/2 75/1/2
f 75/1/2 74/1/2 76/1/2
f 77/2/2 78/2/2 82/2/2
f 82/2/2 78/2/2 83/2/2
f 79/1/2 80/1/2 87/1/2
f 87/1/2 80/1/2 88/1/2
f 81/2/2 82/2/2 89/2/2
f 89/2/2 82/2/2 90/2/2
f 83/2/2 84/2/2 91/2/2
f 91/2/2 84/2/2 92/2/2
f 85/1/2 86/1/2 93/1/2
f 93/1/2 86/1/2 94/1/2
f 90/2/2 91/2/2 95/2/2
f 95/2/2 91/2/2 96/2/2
f 97/1/2 98/1/2 99/1/2
f 99/1/2 98/1/2 100/1/2
f 101/1/2 102/1/2 103/1/2
f 103/1/2 102/1/2 104/1/2
f 107/2/3 106/2/3 105/2/3
f 108/2/3 106/2/3 107/2/3
f 109/1/3 108/1/3 107/1/3
f 110/1/3 108/1/3 109/1/3
f 114/2/3 112/2/3 111/2/3
f 115/2/3 112/2/3 114/2/3
f 117/2/3 114/2/3 113/2/3
f 118/2/3 116/2/3 115/2/3
f 119/2/3 117/2/3 113/2/3
f 119/2/3 118/2/3 117/2/3
f 120/2/3 118/2/3 119/2/3
f 121/2/3 116/2/3 118/2/3
f 121/2/3 118/2/3 120/2/3
f 122/2/3 116/2/3 121/2/3
f 123/2/3 121/2/3 120/2/3
f 124/2/3 121/2/3 123/2/3
f 127/1/3 126/1/3 125/1/3
f 128/1/3 126/1/3 127/1/3
f 130/2/3 128/2/3 127/2/3
f 131/2/3 128/2/3 130/2/3
f 134/2/3 130/2/3 129/2/3
f 135/2/3 130/2/3 134/2/3
f 136/2/3 132/2/3 131/2/3
f 137/2/3 132/2/3 136/2/3
f 139/2/3 134/2/3 133/2/3
f 140/2/3 134/2/3 139/2/3
f 141/2/3 138/2/3 137/2/3
f 142/2/3 138/2/3 141/2/3
f 143/2/3 139/2/3 133/2/3
f 144/2/3 139/2/3 143/2/3
f 149/2/3 138/2/3 142/2/3
f 150/2/3 138/2/3 149/2/3
f 151/1/3 144/1/3 143/1/3
f 152/1/3 144/1/3 151/1/3
f 153/2/3 146/2/3 145/2/3
f 154/2/3 146/2/3 153/2/3
f 155/2/3 148/2/3 147/2/3
f 156/2/3 148/2/3 155/2/3
f 157/1/3 150/1/3 149/1/3
f 158/1/3 150/1/3 157/1/3
f 159/2/3 155/2/3 154/2/3
f 160/2/3 155/2/3 159/2/3
f 161/1/3 160/1/3 159/1/3
f 162/1/3 160/1/3 161/1/3
f 165/2/3 164/2/3 163/2/3
f 166/2/3 164/2/3 165/2/3
f 167/1/3 166/1/3 165/1/3
f 168/1/3 166/1/3 167/1/3
f 169/2/4 170/2/4 171/2/4
f 171/2/4 170/2/4 172/2/4
f 171/1/4 172/1/4 173/1/4
f 173/1/4 172/1/4 174/1/4
f 175/1/4 176/1/4 177/1/4
f 177/1/4 176/1/4 178/1/4
f 177/2/4 178/2/4 180/2/4
f 180/2/4 178/2/4 181/2/4
f 179/2/4 180/2/4 184/2/4
f 184/2/4 180/2/4 185/2/4
f 181/2/4 182/2/4 186/2/4
f 186/2/4 182/2/4 187/2/4
f 183/2/4 184/2/4 189/2/4
f 189/2/4 184/2/4 190/2/4
f 187/2/4 188/2/4 191/2/4
f 191/2/4 188/2/4 192/2/4
f 183/2/4 189/2/4 193/2/4
f 193/2/4 189/2/4 194/2/4
f 192/2/4 188/2/4 199/2/4
f 199/2/4 188/2/4 200/2/4
f 193/1/4 194/1/4 201/1/4
f 201/1/4 194/1/4 202/1/4
f 195/2/4 196/2/4 203/2/4
f 203/2/4 196/2/4 204/2/4
f 197/2/4 198/2/4 205/2/4
f 205/2/4 198/2/4 206/2/4
f 199/1/4 200/1/4 207/1/4
f 207/1/4 200/1/4 208/1/4
f 204/2/4 205/2/4 209/2/4
f 209/2/4 205/2/4 210/2/4
f 209/1/4 210/1/4 211/1/4
f 211/1/4 210/1/4 212/1/4
f 213/2/4 214/2/4 216/2/4
f 216/2/4 214/2/4 217/2/4
f 215/2/4 216/2/4 219/2/4
f 217/2/4 218/2/4 220/2/4
f 215/2/4 219/2/4 221/2/4
f 219/2/4 220/2/4 221/2/4
f 221/2/4 220/2/4 222/2/4
f 220/2/4 218/2/4 223/2/4
f 222/2/4 220/2/4 223/2/4
f 223/2/4 218/2/4 224/2/4
f 222/2/4 223/2/4 225/2/4
f 225/2/4 223/2/4 226/2/4
f 227/2/4 228/2/4 229/2/4
f 229/2/4 228/2/4 230/2/4
f 229/1/4 230/1/4 231/1/4
f 231/1/4 230/1/4 232/1/4
f 236/2/5 234/2/5 233/2/5
f 237/1/5 235/1/5 234/1/5
f 237/2/5 234/2/5 236/2/5
f 238/1/5 235/1/5 237/1/5
f 242/2/5 240/2/5 239/2/5
f 243/2/5 240/2/5 242/2/5
f 244/2/5 240/2/5 243/2/5
f 246/2/5 242/2/5 241/2/5
f 247/2/5 242/2/5 246/2/5
f 248/2/5 245/2/5 244/2/5
f 248/2/5 244/2/5 243/2/5
f 249/2/5 245/2/5 248/2/5
f 250/2/5 245/2/5 249/2/5
f 251/2/5 248/2/5 247/2/5
f 251/2/5 249/2/5 248/2/5
f 252/2/5 249/2/5 251/2/5
f 256/2/5 254/2/5 253/2/5
f 257/1/5 255/1/5 254/1/5
f 257/2/5 254/2/5 256/2/5
f 258/1/5 255/1/5 257/1/5
f 260/2/5 256/2/5 253/2/5
f 261/2/5 256/2/5 260/2/5
f 266/2/5 260/2/5 259/2/5
f 267/2/5 260/2/5 266/2/5
f 268/2/5 263/2/5 262/2/5
f 269/2/5 263/2/5 268/2/5
f 272/1/5 265/1/5 264/1/5
f 273/2/5 266/2/5 265/2/5
f 273/1/5 265/1/5 272/1/5
f 274/2/5 266/2/5 273/2/5
f 277/2/5 270/2/5 269/2/5
f 278/1/5 271/1/5 270/1/5
f 278/2/5 270/2/5 277/2/5
f 279/1/5 271/1/5 278/1/5
f 280/2/5 275/2/5 274/2/5
f 281/2/5 275/2/5 280/2/5
f 283/2/5 277/2/5 276/2/5
f 284/2/5 277/2/5 283/2/5
f 285/2/5 282/2/5 281/2/5
f 288/2/5 285/2/5 281/2/5
f 288/2/5 286/2/5 285/2/5
f 289/1/5 287/1/5 286/1/5
f 289/2/5 286/2/5 288/2/5
f 290/1/5 287/1/5 289/1/5
f 294/2/5 292/2/5 291/2/5
f 295/1/5 293/1/5 292/1/5
f 295/2/5 292/2/5 294/2/5
f 296/1/5 293/1/5 295/1/5
f 297/2/6 298/2/6 300/2/6
f 298/1/6 299/1/6 301/1/6
f 300/2/6 298/2/6 301/2/6
f 301/1/6 299/1/6 302/1/6
f 303/2/6 304/2/6 306/2/6
f 304/1/6 305/1/6 307/1/6
f 306/2/6 304/2/6 307/2/6
f 307/1/6 305/1/6 308/1/6
f 303/2/6 306/2/6 310/2/6
f 310/2/6 306/2/6 311/2/6
f 309/2/6 310/2/6 316/2/6
f 316/2/6 310/2/6 317/2/6
f 312/2/6 313/2/6 318/2/6
f 318/2/6 313/2/6 319/2/6
f 314/1/6 315/1/6 322/1/6
f 315/2/6 316/2/6 323/2/6
f 322/1/6 315/1/6 323/1/6
f 323/2/6 316/2/6 324/2/6
f 319/2/6 320/2/6 327/2/6
f 320/1/6 321/1/6 328/1/6
f 327/2/6 320/2/6 328/2/6
f 328/1/6 321/1/6 329/1/6
f 324/2/6 325/2/6 330/2/6
f 330/2/6 325/2/6 331/2/6
f 326/2/6 327/2/6 333/2/6
f 333/2/6 327/2/6 334/2/6
f 331/2/6 332/2/6 335/2/6
f 331/2/6 335/2/6 338/2/6
f 335/2/6 336/2/6 338/2/6
f 336/1/6 337/1/6 339/1/6
f 338/2/6 336/2/6 339/2/6
f 339/1/6 337/1/6 340/1/6
f 341/2/6 342/2/6 344/2/6
f 344/2/6 342/2/6 345/2/6
f 345/2/6 342/2/6 346/2/6
f 343/2/6 344/2/6 348/2/6
f 348/2/6 344/2/6 349/2/6
f 346/2/6 347/2/6 350/2/6
f 345/2/6 346/2/6 350/2/6
f 350/2/6 347/2/6 351/2/6
f 351/2/6 347/2/6 352/2/6
f 349/2/6 350/2/6 353/2/6
f 350/2/6 351/2/6 353/2/6
f 353/2/6 351/2/6 354/2/6
f 355/2/6 356/2/6 358/2/6
f 356/1/6 357/1/6 359/1/6
f 358/2/6 356/2/6 359/2/6
f 359/1/6 357/1/6 360/1/6
